<svg width="46" height="38" viewBox="0 0 46 38" fill="none" xmlns="http://www.w3.org/2000/svg">
<path d="M12.0144 19.9801C12.4349 22.5971 12.3097 23.1598 11.8981 24.2227C11.8713 24.2942 12.1576 24.5353 12.2649 24.2674C12.5959 23.4099 12.5959 23.401 12.6496 22.6507C12.7033 21.704 11.9966 19.9087 12.0144 19.9801ZM29.2086 19.1048C29.2265 19.0244 28.0278 21.5879 28.0993 22.6239C28.162 23.4457 28.1262 23.6957 28.5287 24.6246C28.654 24.9194 29.0029 24.6514 28.976 24.5711C28.4124 22.74 28.323 22.6329 29.2086 19.1048ZM31.0962 19.3549C31.1141 19.2745 30.2643 21.3467 30.3358 22.3828C30.3984 23.2045 30.3716 23.0795 30.7742 24.0084C30.8994 24.3031 31.2662 24.053 31.2304 23.9816C30.7384 22.8204 30.5863 22.2131 31.0962 19.3549ZM33.1985 19.7747C33.2075 19.7122 32.4829 21.2842 32.5455 22.1148C32.5992 22.7758 32.5992 22.7847 32.9391 23.526C33.0465 23.7583 33.3417 23.5528 33.3148 23.4903C32.8944 22.5703 32.7602 22.0702 33.1985 19.7747ZM19.2428 18.2206C19.1086 18.0419 18.8939 17.8544 19.0013 18.0687C19.2786 18.6582 19.6096 18.9441 20.1106 19.0512C20.701 19.1763 21.1751 18.8011 21.4793 18.1491C21.5777 17.9258 20.9962 18.685 20.2716 18.6672C19.8332 18.6582 19.5112 18.5689 19.2428 18.2206ZM19.2965 20.8912C19.1623 20.7125 18.9476 20.525 19.0549 20.7393C19.3323 21.3288 19.6633 21.6146 20.1642 21.7218C20.7547 21.8469 21.2288 21.4717 21.533 20.8197C21.6314 20.5964 21.0499 21.3556 20.3253 21.3378C19.8869 21.3288 19.5649 21.2484 19.2965 20.8912ZM19.3502 23.7672C19.216 23.5886 19.0013 23.401 19.1086 23.6243C19.3859 24.2138 19.7169 24.4996 20.2179 24.6068C20.8084 24.7318 21.2825 24.3567 21.5867 23.7047C21.6851 23.4814 21.1036 24.2406 20.3789 24.2227C19.9406 24.2049 19.6096 24.1245 19.3502 23.7672ZM19.4933 26.2324C19.3591 26.0537 19.1444 25.8662 19.2517 26.0895C19.5291 26.6789 19.8601 26.9648 20.3611 27.0719C20.9515 27.197 21.4256 26.8219 21.7298 26.1698C21.8282 25.9465 21.2467 26.7057 20.5221 26.6879C20.0927 26.67 19.7617 26.5896 19.4933 26.2324ZM21.7835 16.8272C21.6493 16.6486 21.4346 16.461 21.5419 16.6754C21.8192 17.2649 22.1502 17.5507 22.6512 17.6579C23.2417 17.7829 23.7158 17.4078 24.02 16.7558C24.1184 16.5325 23.5369 17.2917 22.8123 17.2738C22.3739 17.256 22.0518 17.1756 21.7835 16.8272ZM21.8282 19.4978C21.694 19.3192 21.4793 19.1316 21.5867 19.346C21.864 19.9355 22.195 20.2213 22.696 20.3285C23.2864 20.4535 23.7605 20.0784 24.0647 19.4264C24.1631 19.2031 23.5816 19.9623 22.857 19.9444C22.4186 19.9355 22.0966 19.8462 21.8282 19.4978ZM21.8819 22.3738C21.7477 22.1952 21.533 22.0076 21.6403 22.222C21.9177 22.8115 22.2487 23.0973 22.7496 23.2045C23.3401 23.3295 23.8142 22.9544 24.1184 22.3024C24.2168 22.0791 23.6353 22.8383 22.9107 22.8204C22.4723 22.8115 22.1502 22.7222 21.8819 22.3738ZM22.034 24.839C21.8998 24.6604 21.6851 24.4728 21.7924 24.6961C22.0697 25.2856 22.4007 25.5714 22.9017 25.6786C23.4921 25.8036 23.9663 25.4285 24.2704 24.7765C24.3689 24.5532 23.7874 25.3124 23.0627 25.2945C22.6244 25.2767 22.3023 25.1963 22.034 24.839ZM24.1273 18.3546C23.9931 18.1759 23.7784 17.9884 23.8858 18.2027C24.1631 18.7922 24.4941 19.078 24.9951 19.1852C25.5855 19.3103 26.0596 18.9351 26.3638 18.2831C26.4622 18.0598 25.8807 18.819 25.1561 18.8011C24.7177 18.7833 24.3867 18.7029 24.1273 18.3546ZM24.172 21.0252C24.0379 20.8465 23.8231 20.659 23.9305 20.8733C24.2078 21.4628 24.5388 21.7486 25.0398 21.8558C25.6302 21.9808 26.1044 21.6057 26.4085 20.9537C26.5069 20.7304 25.9255 21.4896 25.2008 21.4717C24.7625 21.4628 24.4404 21.3735 24.172 21.0252ZM24.2257 23.9012C24.0915 23.7225 23.8768 23.535 23.9842 23.7583C24.2615 24.3478 24.5925 24.6336 25.0935 24.7408C25.6839 24.8658 26.1581 24.4907 26.4622 23.8387C26.5606 23.6154 25.9791 24.3746 25.2545 24.3567C24.8162 24.3388 24.4852 24.2584 24.2257 23.9012ZM24.3778 26.3663C24.2436 26.1877 24.0289 26.0001 24.1363 26.2145C24.4136 26.804 24.7446 27.0898 25.2456 27.197C25.836 27.322 26.3101 26.9469 26.6143 26.2949C26.7127 26.0716 26.1312 26.8308 25.4066 26.8129C24.9682 26.804 24.6372 26.7236 24.3778 26.3663ZM15.8702 19.2209C16.729 23.2492 16.6395 23.3653 16.0938 25.4642C16.067 25.5535 16.4069 25.8572 16.5232 25.5268C16.9079 24.4639 16.8811 24.1691 16.9347 23.2402C17.0063 22.0523 15.8523 19.1316 15.8702 19.2209ZM14.0541 19.5068C14.5462 22.7668 14.3941 23.4635 13.9199 24.7854C13.8842 24.8747 14.242 25.1516 14.3672 24.8211C14.7519 23.7583 14.734 23.9012 14.7877 22.9633C14.8593 21.7754 14.0362 19.4085 14.0541 19.5068ZM22.0161 9.17272C21.8014 9.17272 21.6314 9.35135 21.6314 9.56572C21.6314 9.72649 21.8192 9.95871 21.9892 9.96765C22.7675 10.0034 22.4991 9.55678 22.6781 9.55678C22.8123 9.55678 23.7247 9.53892 23.7247 9.92299C23.7247 10.0748 23.8231 10.1016 23.8231 9.94085C23.8142 9.41388 22.4186 9.17272 22.0161 9.17272ZM30.479 12.3435C33.1807 12.6293 35.8913 17.64 35.8644 21.311C35.8644 21.8647 34.8446 20.9537 35.0772 21.4539C35.8197 23.0348 35.4529 24.8301 35.5245 25.7947C35.5782 26.411 34.7909 26.536 34.7909 26.536C34.7909 28.4653 34.5583 29.8854 33.7532 31.6539C33.1717 32.949 32.0535 34.4406 31.7135 35.7089C30.9531 35.4946 30.309 34.4228 30.309 33.8958C30.309 33.0294 31.4183 30.9305 31.9998 29.421C32.2682 28.6171 32.3934 27.983 32.796 27.6168C32.0535 28.2063 31.9282 28.8404 31.5704 29.5907C31.0426 30.725 30.1748 32.4846 29.9333 33.5921C29.3607 33.1098 28.8329 32.4399 28.8329 31.8058C28.8329 31.4753 30.3448 27.8669 30.8189 27.0987C29.4144 28.1616 29.2444 29.9837 28.5377 31.5378C28.0993 31.1716 27.6431 30.4035 27.6431 29.8497C27.6431 29.3763 28.815 26.6254 29.1013 26.3574C28.1083 26.8397 27.652 28.5636 27.3568 29.546C26.6859 28.9298 26.5875 28.0991 26.5517 27.4292C26.3101 28.5546 25.335 31.1716 25.335 31.5646C25.335 31.8683 26.1223 33.9047 26.3728 34.2263C26.5606 34.2441 26.9006 33.9047 27.5089 34.2441C27.7952 34.5389 27.9204 34.3156 28.2514 35.0212C28.0635 35.0301 27.7683 34.7711 27.6431 34.7265C27.2584 34.5925 27.3747 34.7354 27.1063 34.8694C26.8111 35.0123 26.5069 34.7175 26.4443 34.7622C27.1421 35.3249 27.5178 35.3695 27.2226 36.1555C27.1689 36.3074 26.9721 36.7361 26.9095 36.8165C26.7932 36.6825 26.8379 36.093 26.7216 35.7804C25.8718 35.7715 26.3728 34.9498 25.9076 34.8962C25.7286 35.7625 24.8519 34.9944 24.6283 35.8519L24.3689 36.1287C24.2704 34.5389 25.5408 34.521 25.5229 34.4406C25.0398 32.2613 22.8033 30.3767 22.8033 30.3767C21.8998 31.5468 20.9604 32.0023 20.1374 34.4406C20.1106 34.521 21.3719 34.7354 21.5419 36.3342L21.3809 36.2717C21.3362 36.0484 21.0857 35.7536 20.8084 35.7C20.3789 35.6107 19.878 35.7536 19.9764 34.9944C19.8153 35.1105 19.8064 35.2802 19.5917 35.6107C19.4217 35.8697 18.9834 36.1913 18.9297 36.5485C18.8939 36.7808 19.0728 37.0398 19.1981 37.2809C19.1086 37.1648 18.5271 36.6468 18.5987 36.4949C19.046 35.5125 18.1424 35.6732 19.207 34.7622C19.1533 34.7086 18.8402 35.1195 18.545 34.9765C18.1782 34.7979 18.2945 35.2534 17.5341 35.2356C17.9904 34.9408 18.0798 34.4496 18.5003 34.2709C18.6792 34.1995 19.2249 34.2084 19.4128 34.1905C19.6633 33.869 20.3074 31.8683 20.3074 31.5646C20.3074 31.1716 19.3323 28.5546 19.0907 27.4292C19.0549 28.0991 18.9655 28.9298 18.2856 29.546C17.9904 28.5636 17.5341 26.8397 16.5411 26.3574C16.8274 26.6254 17.9993 29.3763 17.9993 29.8497C17.9993 30.4035 17.5431 31.1716 17.1047 31.5378C16.398 29.9837 16.228 28.1527 14.8235 27.0987C15.2976 27.8669 16.8095 31.4753 16.8095 31.8058C16.8095 32.431 16.2817 33.1009 15.7091 33.5921C15.4676 32.4935 14.5998 30.725 14.072 29.5907C13.7142 28.8404 13.5889 28.2063 12.8464 27.6168C13.249 27.983 13.3742 28.6171 13.6426 29.421C14.2241 30.9215 15.3334 33.0205 15.3334 33.8958C15.3334 34.4138 14.6803 35.4946 13.9289 35.7089C13.58 34.4406 12.5512 32.9133 11.8892 31.6539C10.1626 28.3671 11.0483 27.6882 10.771 25.9555C10.6815 25.4017 10.1626 26.0359 10.2163 25.0444C10.2163 25.0444 9.28592 21.6236 10.9141 19.2656C10.9409 18.8815 9.97476 19.7122 10.0195 19.3549C10.2252 17.8722 12.1307 12.6561 15.1724 12.3435C16.9795 12.1559 16.89 14.5407 18.0261 15.3535C18.2856 15.5411 18.6076 15.6482 19.0281 15.6482C19.7975 15.6482 20.2537 15.1481 20.5221 14.5228C20.8889 13.7011 20.9157 12.674 20.9157 12.3703C20.9157 11.5486 20.9962 10.4589 19.4128 10.5036C19.6901 10.3338 19.9943 10.2892 20.1553 10.2892C20.6205 10.2892 21.0946 10.5036 21.5419 10.8162L21.6403 10.709C21.3272 10.182 20.5042 10.0212 20.1195 10.0212C19.8511 10.0212 18.9923 10.2177 18.8402 10.5482C18.7418 10.4768 18.6703 10.4142 18.6703 10.2535C18.6613 9.87833 18.7597 9.39601 18.9744 9.23524C19.7169 8.69041 20.4147 9.04768 20.7994 8.78865C21.4525 8.34207 21.7298 8.17236 22.2934 8.17236C22.4544 8.17236 23.85 8.36886 24.6551 8.57429C24.7267 8.64575 24.7356 8.60109 24.7356 8.77079C24.7356 8.94049 24.6641 9.02981 24.6014 9.06554C25.0577 9.24417 25.2635 10.45 25.2635 10.8698V13.1741C25.2635 14.237 25.6302 15.3803 27.0079 15.3981C29.307 15.4339 28.4661 12.1381 30.479 12.3435ZM19.3233 29.1888L20.039 31.4753C19.708 32.4221 19.6543 33.2974 19.2965 33.8958C19.1802 34.0834 18.4108 33.9673 18.2051 34.1012C17.9546 34.2709 17.6415 34.8068 17.3552 35.0033L19.3233 29.1888ZM19.7706 37.7632C19.6096 37.7632 18.1067 37.7454 17.9367 37.7454C17.4626 37.7454 16.7379 37.5936 16.7379 36.8344C16.7379 36.6646 17.0063 35.9233 17.3015 35.441C17.3999 35.5928 17.4357 35.4142 17.5967 35.4142C17.7578 35.4142 17.9456 35.441 18.0888 35.3695C18.0888 35.3695 18.4019 35.2445 18.4913 35.2266C18.3661 35.5392 18.5361 35.8608 18.4824 36.1019C18.384 36.5128 18.3393 36.6736 18.4377 36.8076C18.5897 37.013 18.7866 37.3881 19.2428 37.4506C19.4575 37.4596 19.1265 36.9147 19.1265 36.62C19.1355 36.2359 19.6275 36.0484 19.8153 35.5928C19.869 35.9233 20.3789 35.8519 20.7815 35.9858C21.0857 36.1287 20.9783 36.486 21.5419 36.6646C21.8282 36.754 21.7477 36.1913 21.7477 36.1019C21.7477 35.5392 21.1036 34.5835 20.5042 34.396C20.7726 32.8508 22.8301 30.8679 22.8928 30.7965C23.5011 31.4485 24.9056 32.9044 25.1114 34.2709C24.8877 34.521 24.3689 34.4942 24.1452 35.6554C24.1273 35.7447 24.0915 36.3788 24.3689 36.5039C24.5657 36.5932 24.8967 36.0752 24.9503 35.7804C25.0219 35.4053 25.5139 35.959 25.8628 35.3963C25.9791 35.5482 26.0418 35.6911 26.1133 35.8965C26.1759 36.0751 26.5159 35.9322 26.5696 36.1019C26.6948 36.5128 26.5964 37.1112 26.8469 37.1023C27.1421 37.0398 27.4999 36.4324 27.4999 36.0751C27.4999 35.9054 27.7594 35.3695 27.1511 35.0659C27.2226 34.9855 27.661 34.9587 27.661 34.9587C27.8041 35.0301 28.0457 35.316 28.4661 35.4499C28.7613 35.9322 29.0297 36.6736 29.0297 36.8433C29.0297 37.5935 28.4124 37.7543 27.9294 37.7543C27.7773 37.7454 21.2825 37.7632 19.7706 37.7632ZM26.3996 29.0012L28.2425 34.5389C27.9562 34.3424 27.7147 34.0566 27.4642 33.8958C27.2584 33.7618 26.7127 34.0566 26.5964 33.8601C26.1044 33.0116 25.9076 32.4846 25.5766 31.5378L26.3996 29.0012Z" fill="white"/>
<path fill-rule="evenodd" clip-rule="evenodd" d="M4.73237 36.9061L4.90235 36.79L4.85762 36.7096C4.72343 36.5131 5.05443 36.2988 5.33176 36.1023L6.86152 35.0305C7.04044 34.9054 7.41617 34.6553 7.55036 34.8429L7.60404 34.9143L7.77401 34.7982L7.68455 34.6732C7.64877 34.6196 7.58614 34.5749 7.53247 34.5303C7.47879 34.4767 7.42512 34.4142 7.38039 34.3427C7.33566 34.2802 7.29093 34.2087 7.26409 34.1373C7.21936 34.0658 7.20147 33.9944 7.15674 33.9408L7.06728 33.8157L6.8973 33.9319L6.95098 34.0033C7.08517 34.1909 6.71838 34.4588 6.53946 34.5839L5.0097 35.6557C4.74132 35.8432 4.41926 36.0844 4.27613 35.8879L4.22245 35.8164L4.05248 35.9326L4.13299 36.0487C4.16878 36.1023 4.2314 36.1559 4.27613 36.2094C4.32981 36.263 4.38348 36.3256 4.42821 36.3881C4.47294 36.4506 4.50872 36.5221 4.54451 36.5935C4.57135 36.656 4.60713 36.7275 4.64291 36.7811L4.73237 36.9061ZM3.89145 35.3431L3.83778 35.2627C3.80199 35.2091 3.82883 35.1198 3.92724 35.0751C4.15088 34.9679 4.4461 35.0215 4.66975 35.0483C4.93813 35.0751 5.2244 35.0751 5.64487 35.093C5.83273 34.5749 6.08322 34.048 6.18162 33.8336C6.43211 33.3066 6.5663 33.0297 6.36054 32.7439C6.26214 32.61 6.21741 32.601 6.02954 32.467L5.85957 32.5921C6.01165 32.6635 6.04743 32.7171 6.06533 32.7439C6.13689 32.8511 6.0027 33.0833 5.91324 33.253C5.77905 33.521 5.64487 33.8068 5.51962 34.0748C5.40332 34.3248 5.26913 34.566 5.3407 34.9233C5.25124 34.9143 5.20651 34.9054 5.126 34.8965C4.91129 34.8786 5.09916 34.9054 4.55345 34.834C3.56045 34.7089 3.48888 34.7357 3.3368 34.5303L3.30102 34.4767L3.13104 34.5928L3.18472 34.6732C3.21156 34.7089 3.24734 34.7357 3.27418 34.7714C3.3368 34.834 3.40837 34.9054 3.46204 34.9769C3.52467 35.0662 3.56045 35.1555 3.60518 35.2538C3.63202 35.2984 3.64991 35.3341 3.67675 35.3699L3.73042 35.4413L3.89145 35.3431Z" fill="white"/>
<path fill-rule="evenodd" clip-rule="evenodd" d="M2.2899 33.0029L2.47776 32.9225L2.44198 32.8421C2.35252 32.6009 2.8356 32.4491 3.13082 32.333L4.65164 31.7167C4.92002 31.6095 5.4031 31.4041 5.50151 31.6452L5.53729 31.7256L5.72515 31.6452L5.68937 31.5649C5.62675 31.413 5.57307 31.3594 5.5194 31.279C5.43888 31.1629 5.44783 31.1093 5.42994 30.9932C5.42099 30.9128 5.39415 30.8414 5.37626 30.7699C5.34048 30.6449 5.29575 30.5288 5.25102 30.4037C4.94685 29.6535 4.30274 29.7428 3.86439 29.9214C3.39025 30.109 3.03241 30.5824 3.31868 31.279C3.36341 31.3952 3.41709 31.5023 3.47971 31.6095L2.92506 31.8328C2.51355 31.9936 2.1736 32.1633 2.07519 31.9311L2.03941 31.8507L1.85154 31.9311L1.90522 32.065C1.93206 32.1276 1.97679 32.1901 2.01257 32.2526C2.04835 32.3241 2.09308 32.3866 2.11992 32.458C2.14676 32.5295 2.1736 32.6099 2.19149 32.6903C2.20938 32.7617 2.21833 32.8332 2.24517 32.8957L2.2899 33.0029ZM3.64969 31.5202C3.63179 31.4845 3.6139 31.4487 3.59601 31.413C3.42604 30.9932 3.64074 30.627 4.15066 30.4127C4.65164 30.2072 5.00948 30.3412 5.10788 30.5824C5.21523 30.8414 5.05421 30.9486 4.73215 31.0825L3.64969 31.5202ZM1.33268 30.636L1.52054 30.5556L1.48476 30.4752C1.38635 30.234 1.86049 30.0822 2.19149 29.9482L3.71231 29.3319C3.95385 29.2337 4.43693 29.0282 4.52639 29.2605L4.56218 29.3409L4.75004 29.2605L4.69637 29.1176C4.66953 29.055 4.61585 29.0015 4.58007 28.9389C4.53534 28.8764 4.49956 28.8049 4.47272 28.7335C4.44588 28.662 4.41904 28.5906 4.40115 28.5102C4.3922 28.4387 4.3922 28.3673 4.36537 28.3048L4.30274 28.1619L4.11488 28.2333L4.15066 28.3137C4.23118 28.5191 3.82861 28.6888 3.53339 28.805L1.96784 29.4391C1.66368 29.5641 1.20743 29.7874 1.10903 29.5374L1.07324 29.448L0.885376 29.5284L0.939052 29.6624C0.96589 29.7249 1.01062 29.7874 1.0464 29.85C1.08219 29.9214 1.12692 29.9839 1.15376 30.0554C1.18059 30.1269 1.20743 30.2072 1.22532 30.2876C1.24322 30.368 1.25216 30.4395 1.279 30.502L1.33268 30.636Z" fill="white"/>
<path fill-rule="evenodd" clip-rule="evenodd" d="M3.94499 26.027L3.73923 26.0627L3.76607 26.1789C3.81975 26.4379 3.18458 26.5272 2.86253 26.5897L1.11806 26.9291L0.599194 27.0274C0.581302 26.9827 0.581302 26.947 0.572356 26.9023C0.491842 26.4915 0.778113 26.1789 1.33276 26.0717C1.97688 25.9466 2.26315 26.2325 2.23631 26.5272L2.41523 26.4915C2.41523 26.4111 2.41523 26.3307 2.39734 26.2503C2.27209 25.6251 1.69955 25.4286 1.13595 25.5358C0.813897 25.5983 0.125056 25.8662 0.303976 26.7684C0.321868 26.8666 0.357652 26.9649 0.393436 27.0631C0.438166 27.1881 0.482896 27.3132 0.509734 27.4472C0.527626 27.5276 0.536572 27.6169 0.545518 27.6973C0.545518 27.7419 0.554464 27.7955 0.56341 27.8402L0.581302 27.9295L0.787059 27.8938L0.769168 27.8044C0.724438 27.5722 1.23436 27.474 1.63693 27.3936L2.65677 27.1971C2.84464 27.1614 3.30983 27.081 3.50664 27.0452C3.63188 27.0274 3.94499 26.9827 3.98972 27.1703L4.00761 27.2596L4.21337 27.2239L4.18653 27.0631C4.16864 26.9917 4.13286 26.9291 4.10602 26.8666C4.07918 26.7952 4.05234 26.7237 4.0434 26.6433C4.02551 26.5629 4.01656 26.4825 4.01656 26.4022C4.01656 26.3307 4.03445 26.2592 4.01656 26.1878L3.94499 26.027Z" fill="white"/>
<path fill-rule="evenodd" clip-rule="evenodd" d="M0.0626219 24.3479L0.26838 24.3389V24.2407C0.259434 24.0174 0.724625 23.9995 1.01984 23.9906L2.79115 23.9281C3.07742 23.9192 3.53366 23.8924 3.54261 24.1335V24.2228L3.74837 24.2139L3.73942 24.0531C3.73942 23.9817 3.70364 23.9192 3.68575 23.8477C3.66785 23.7673 3.65891 23.6959 3.65891 23.6155C3.65891 23.5351 3.65891 23.4636 3.6768 23.3832C3.69469 23.3118 3.71258 23.2403 3.71258 23.1778L3.70364 22.9635L3.49788 22.9724L3.50683 23.1242C3.51577 23.3475 3.07742 23.3743 2.72853 23.3832L0.286272 23.4726L0.277326 23.1689C0.26838 22.9635 0.196812 22.6687 0.679895 22.6508C0.814085 22.6419 0.948275 22.6687 0.975113 22.6776L0.966167 22.5079C0.706733 22.4454 0.375731 22.3918 0 22.3472C0.0357839 22.9367 0.0536759 22.9099 0.0715679 23.2225C0.0715679 23.3207 0.0805139 23.5797 0.0805139 23.7048C0.0805139 23.9817 0.0536759 23.9102 0.0536759 24.1514L0.0626219 24.3479Z" fill="white"/>
<path fill-rule="evenodd" clip-rule="evenodd" d="M0.0625 20.8467L0.268258 20.8824L0.28615 20.7931C0.33088 20.5341 0.813963 20.6502 1.12707 20.7038L2.7463 20.9628C3.03257 21.0074 3.55144 21.0878 3.51565 21.3379L3.49776 21.4272L3.70352 21.463L3.72141 21.3736C3.74825 21.2129 3.73035 21.1414 3.72141 21.0432C3.71246 20.9092 3.74825 20.8645 3.79298 20.7484C3.82876 20.677 3.84665 20.6055 3.86454 20.5251C3.90033 20.4001 3.92717 20.275 3.94506 20.15C4.0703 19.3461 3.47092 19.096 3.00573 19.0246C2.50475 18.9442 1.95905 19.1586 1.83381 19.8999C1.81591 20.016 1.80697 20.1411 1.80697 20.2661L1.21653 20.1679C0.778179 20.0964 0.402448 20.0696 0.438231 19.8195L0.456123 19.7302L0.250366 19.6945L0.232474 19.8374C0.223528 19.9088 0.223528 19.9803 0.223528 20.0517C0.223528 20.1321 0.223528 20.2125 0.205636 20.284C0.19669 20.3644 0.169852 20.4447 0.143014 20.5162C0.125122 20.5787 0.089338 20.6502 0.080392 20.7216L0.0625 20.8467ZM1.98589 20.275C1.98589 20.2393 1.99483 20.1947 2.00378 20.15C2.07535 19.7034 2.45108 19.498 2.99678 19.5784C3.53354 19.6677 3.76614 19.9624 3.73035 20.2125C3.68562 20.4894 3.49776 20.4983 3.15781 20.4447L1.98589 20.275ZM0.465069 18.319L0.670827 18.3547L0.688719 18.2654C0.733449 18.0064 1.21653 18.1225 1.56543 18.1761L3.18465 18.4351C3.44408 18.4798 3.954 18.5512 3.91822 18.7924L3.90033 18.8817L4.10609 18.9174L4.13292 18.7566C4.14187 18.6852 4.12398 18.6137 4.12398 18.5423C4.12398 18.4619 4.12398 18.3815 4.14187 18.3101C4.15082 18.2297 4.16871 18.1582 4.19555 18.0868C4.22238 18.0242 4.25817 17.9528 4.26711 17.8903L4.29395 17.7384L4.08819 17.7027L4.07925 17.792C4.04346 18.0153 3.60511 17.9528 3.30095 17.8992L1.63699 17.6312C1.30599 17.5776 0.813963 17.5419 0.849747 17.2829L0.867639 17.1936L0.652935 17.1489L0.626097 17.2918C0.617151 17.3633 0.617151 17.4347 0.617151 17.5062C0.617151 17.5866 0.617151 17.667 0.599259 17.7384C0.590313 17.8188 0.563475 17.8992 0.536637 17.9706C0.518745 18.0332 0.491907 18.1046 0.474015 18.1761L0.465069 18.319Z" fill="white"/>
<path fill-rule="evenodd" clip-rule="evenodd" d="M3.72125 16.5415L3.8286 16.5862C4.17749 16.7202 4.50849 16.9167 4.87528 16.4522C4.96474 16.345 5.03631 16.22 5.08104 16.0949C5.37625 15.3357 4.84844 14.7998 4.38325 14.6212C3.75703 14.38 3.31868 14.7909 3.21132 15.0767L3.18449 15.1482L3.13081 15.1124C3.18449 14.8177 3.1666 14.3175 2.62984 14.1121C2.28094 13.9781 1.79786 13.9513 1.57421 14.5319C1.3774 15.041 1.44897 15.175 1.27899 15.425L1.41318 15.4786C1.54737 15.5322 1.9231 15.693 2.08413 15.7645L2.13781 15.6126C1.78891 15.3893 1.53843 15.175 1.66367 14.8445C1.77102 14.5765 2.06624 14.4961 2.44197 14.6391C2.85349 14.7998 3.00557 15.166 2.89822 15.4429C2.88032 15.4965 2.84454 15.568 2.80876 15.6215L3.08608 15.7287C3.09503 15.6662 3.10397 15.6126 3.13976 15.5322C3.33657 15.0142 3.8286 15.0321 4.24906 15.1928C4.79476 15.3983 4.96474 15.7734 4.84844 16.0771C4.75898 16.3182 4.48166 16.5683 3.75703 16.4165L3.72125 16.5415Z" fill="white"/>
<path fill-rule="evenodd" clip-rule="evenodd" d="M6.46791 11.4773C6.76313 11.8435 6.73629 12.3705 6.57526 12.6295C6.30688 13.0761 5.48385 13.3529 4.4819 12.7545C3.64992 12.2543 3.28314 11.5309 3.66782 10.8878C3.86463 10.5573 4.30298 10.334 4.78606 10.6198L4.87552 10.4769C4.83974 10.4591 4.8129 10.4412 4.77712 10.4233C4.5982 10.3162 4.25825 10.0929 4.07039 9.94995C4.04355 10.0393 3.98093 10.1375 3.92725 10.2358C3.80201 10.4412 3.60519 10.5662 3.3726 10.9414C2.79111 11.906 3.32787 12.7902 4.12406 13.2636C5.11707 13.8621 6.20848 13.6924 6.73629 12.817C6.87943 12.5848 6.99572 12.2633 6.99572 12.0043C6.99572 11.8346 6.95994 11.6738 6.55737 11.3433L6.46791 11.4773Z" fill="white"/>
<path fill-rule="evenodd" clip-rule="evenodd" d="M5.9044 8.02956L7.63992 9.58369C7.9083 9.82485 8.33771 10.2178 8.16773 10.4054L8.10511 10.4769L8.25719 10.6108L8.37349 10.4858C8.42717 10.4322 8.45401 10.3608 8.48084 10.2982C8.51663 10.2268 8.5703 10.1643 8.62398 10.1107C8.67766 10.0571 8.74028 9.99455 8.8029 9.94989C8.86552 9.90523 8.92814 9.87844 8.98182 9.82485L9.08917 9.70873L8.93709 9.57476L8.87447 9.64621C8.70449 9.84271 8.27509 9.43185 8.00671 9.19962L6.27118 7.6187L6.50378 7.35968C6.62008 7.23464 6.84373 6.99348 7.16578 7.2793C7.18368 7.29716 7.25524 7.35968 7.33576 7.45793L7.45206 7.33289C7.14789 6.98455 7.11211 6.90416 6.80794 6.59155C6.57535 6.8863 6.21751 7.35968 5.93124 7.68123C5.81494 7.80627 5.52867 8.11888 5.42132 8.21713C5.30502 8.33324 5.27818 8.35111 5.00085 8.6012C5.21556 8.82449 5.28713 8.92274 5.65391 9.32467L5.76126 9.19962C5.43921 8.7441 5.48394 8.49402 5.6718 8.28859L5.9044 8.02956Z" fill="white"/>
<path fill-rule="evenodd" clip-rule="evenodd" d="M10.055 8.7086L10.1713 8.61928C10.2071 8.59248 10.2339 8.5389 10.2608 8.50317C10.3055 8.44065 10.3681 8.39599 10.4307 8.3424C10.7259 8.10124 10.5202 8.33346 10.7796 8.1191L10.8422 8.07444L10.7081 7.91367L10.6275 7.97619C10.556 8.02979 10.386 8.12803 10.225 7.77076L9.9387 7.14554C10.1355 7.00263 10.1802 6.97584 10.2697 6.90438C10.4039 6.78827 10.556 6.6543 10.6186 6.59177L11.2448 7.04729C11.3969 7.1634 11.4237 7.31524 11.3253 7.39563L11.2448 7.45815L11.379 7.61892L11.5221 7.50281C11.5848 7.44922 11.6384 7.37777 11.6921 7.31524C11.7458 7.26165 11.7905 7.20806 11.8531 7.16341C11.9247 7.10088 12.0052 7.04729 12.0947 6.9937C12.1573 6.95797 12.2289 6.92225 12.2915 6.87759L12.372 6.80613L12.2378 6.64536L12.211 6.69895C12.1215 6.77041 12.05 6.88652 11.6742 6.64536C11.3164 6.41314 11.6295 6.6543 10.0192 5.51103C9.30353 5.00192 9.13356 4.87688 8.90991 4.69824C8.86518 4.80542 8.80256 4.9126 8.72205 5.01085C8.88307 5.28774 9.01726 5.59142 9.58086 6.88652C9.69716 7.15447 9.86713 7.56533 10.0013 7.96726C10.0639 8.1459 10.1266 8.37812 9.99238 8.4853L9.92081 8.5389L10.055 8.7086ZM9.25881 5.59142C9.48246 5.80578 9.58086 5.82364 10.4307 6.4578C10.3681 6.53818 10.3055 6.6007 10.1802 6.69895C10.0461 6.81507 9.94765 6.87759 9.84924 6.93118C9.35721 5.85937 9.33932 5.78792 9.23197 5.62714L9.25881 5.59142Z" fill="white"/>
<path fill-rule="evenodd" clip-rule="evenodd" d="M11.4599 3.14395L11.5494 3.33151L11.6299 3.29579C11.7998 3.2154 11.9161 3.4119 11.9967 3.56374C12.0682 3.70665 12.2024 3.96567 12.274 4.10858L12.9628 5.52872C13.0612 5.72522 13.2491 6.13608 13.0433 6.23433L12.9628 6.27006L13.0523 6.45763L13.1954 6.38617C13.258 6.35938 13.3117 6.29685 13.3654 6.25219C13.428 6.20754 13.4996 6.16288 13.5712 6.12715C13.6427 6.09142 13.7143 6.06463 13.7948 6.04676C13.8664 6.0289 13.9379 6.0289 14.0006 5.99317L14.1437 5.92172L14.0542 5.73415L13.9737 5.76988C13.7948 5.8592 13.6069 5.54659 13.4727 5.2697L13.0702 4.43905C13.1865 4.40332 13.3207 4.3408 13.5175 4.25148C13.6069 4.20682 13.7053 4.16217 13.7948 4.11751C13.8843 4.07285 13.9827 4.02819 14.0721 3.98353C14.2689 3.88528 14.3942 3.81383 14.4926 3.74237L14.8952 4.57303C15.0293 4.84991 15.1635 5.18932 14.9846 5.27863L14.9041 5.31436L14.9936 5.50193L15.1367 5.43047C15.1993 5.40368 15.253 5.34116 15.3067 5.2965C15.3693 5.25184 15.4409 5.20718 15.5124 5.17145C15.584 5.13573 15.6556 5.10893 15.7361 5.09107C15.8076 5.0732 15.8792 5.0732 15.9418 5.03748L16.085 4.96602L15.9955 4.77846L15.915 4.81418C15.7092 4.91243 15.5035 4.5105 15.4051 4.31401L14.7162 2.89386C14.5194 2.50086 14.2242 2.00068 14.4747 1.87564L14.5552 1.83991L14.4658 1.65234L14.3405 1.71487C14.26 1.78632 14.1974 1.83098 14.1437 1.87564C14.0811 1.9203 14.0095 1.96496 13.9379 2.00068C13.8664 2.03641 13.7948 2.0632 13.7143 2.08107C13.6427 2.09893 13.5712 2.11679 13.5085 2.15252L13.3743 2.21504L13.4638 2.40261L13.5443 2.36688C13.7322 2.27757 13.8664 2.53659 13.92 2.63484C13.9648 2.71522 14.1437 3.06356 14.1974 3.1886L14.3673 3.53694C14.26 3.6084 14.099 3.72451 13.6785 3.92994C13.258 4.13537 13.0702 4.19789 12.9449 4.23362L12.775 3.88528C12.7123 3.76024 12.5424 3.40297 12.5066 3.32258C12.4618 3.2154 12.3366 2.94745 12.5245 2.85813L12.605 2.8224L12.5245 2.6259L12.3903 2.68843C12.3277 2.71522 12.265 2.76881 12.2114 2.80454C12.1487 2.8492 12.0772 2.89386 12.0146 2.92958C11.943 2.96531 11.8625 2.99211 11.7909 3.0189C11.7193 3.03677 11.6478 3.05463 11.5851 3.09036L11.4599 3.14395Z" fill="white"/>
<path fill-rule="evenodd" clip-rule="evenodd" d="M20.8083 3.00999C20.7278 3.47444 20.3252 3.80492 20.0211 3.86744C19.5022 3.96569 18.7507 3.5459 18.5271 2.40263C18.3392 1.44694 18.6344 0.687738 19.368 0.54483C19.7527 0.473376 20.2089 0.64308 20.3163 1.19685L20.4863 1.16112C20.4773 1.12539 20.4684 1.08967 20.4594 1.05394C20.4236 0.84851 20.3521 0.446581 20.3431 0.214355C20.2537 0.250082 20.1463 0.276878 20.03 0.294741C19.7974 0.3394 19.5648 0.276878 19.1354 0.357264C18.0261 0.571626 17.7309 1.55412 17.9098 2.46516C18.1335 3.59949 18.9833 4.29617 19.9853 4.09967C20.2537 4.04608 20.5668 3.92103 20.7636 3.75133C20.8888 3.63522 20.9872 3.50124 20.9604 2.97427L20.8083 3.00999Z" fill="white"/>
<path fill-rule="evenodd" clip-rule="evenodd" d="M21.8639 3.80493H22.007C22.0518 3.80493 22.1054 3.78706 22.1502 3.77813C22.2307 3.76027 22.3022 3.76027 22.3828 3.7692C22.7585 3.77813 22.4633 3.82279 22.7943 3.82279H22.8748V3.61736H22.7764C22.6869 3.61736 22.4991 3.58163 22.5975 3.2065L22.7853 2.54555C23.0269 2.56341 23.0716 2.57234 23.1879 2.57234C23.3668 2.57234 23.5726 2.57234 23.662 2.56341L23.841 3.31368C23.8857 3.50125 23.8052 3.63522 23.6799 3.62629H23.5815V3.83172H23.7694C23.8499 3.83172 23.9304 3.81386 24.0199 3.79599C24.0914 3.78706 24.163 3.77813 24.2346 3.78706C24.333 3.78706 24.4314 3.79599 24.5208 3.81386C24.5924 3.82279 24.664 3.84958 24.7445 3.84958H24.8519V3.64415H24.8071C24.6908 3.64415 24.5656 3.68881 24.4314 3.26009C24.3061 2.84923 24.3956 3.24223 23.8946 1.33083C23.671 0.482315 23.6173 0.276884 23.5636 0C23.4652 0.0535905 23.3489 0.0982492 23.2237 0.116113C23.17 0.428724 23.0805 0.750267 22.669 2.10789C22.5885 2.39371 22.4543 2.8135 22.2933 3.2065C22.2217 3.38513 22.1233 3.5995 21.9534 3.5995H21.8639V3.80493ZM23.2595 0.902107C23.2952 1.21472 23.3579 1.28617 23.5994 2.31332C23.501 2.34012 23.4115 2.34905 23.2595 2.34012C23.0805 2.34012 22.9732 2.32225 22.8569 2.30439C23.17 1.17006 23.2058 1.09861 23.2237 0.911039L23.2595 0.902107Z" fill="white"/>
<path fill-rule="evenodd" clip-rule="evenodd" d="M25.4423 3.95671L25.6212 3.99243C25.7196 4.0103 25.8091 3.96564 25.988 4.00137C26.0775 4.01923 26.1669 4.05496 26.2564 4.09068C26.3101 4.10855 26.3548 4.13534 26.4085 4.14427L26.4801 4.16214L26.5158 3.95671L26.4174 3.92991C26.328 3.91205 26.1938 3.83166 26.3816 3.42973L27.1421 1.81309C27.2315 1.61659 27.2852 1.50941 27.321 1.33077L27.3568 1.3397C27.3478 1.46475 27.3389 1.50048 27.3478 1.563L27.491 3.4208C27.5088 3.68876 27.5804 4.15321 27.2315 4.08175L27.1778 4.07282L27.1421 4.28718L27.3568 4.33184C27.4283 4.34077 27.491 4.33184 27.5625 4.32291C27.643 4.31398 27.7235 4.33184 27.8041 4.3497C27.8935 4.36757 27.974 4.38543 28.0545 4.43009C28.1082 4.45689 28.1708 4.49261 28.2245 4.50154L28.3677 4.52834L28.4034 4.32291L28.314 4.30505C28.1082 4.26039 28.0545 3.69769 28.0009 3.16178C27.8935 2.01852 27.8398 1.43795 27.813 0.553711C27.7057 0.562643 27.5894 0.562643 27.4731 0.562643C27.2226 1.17893 26.981 1.65232 26.7305 2.13463C26.2832 3.01887 26.2832 2.98315 26.1133 3.30469C26.0149 3.48332 25.8181 3.83166 25.5855 3.77807L25.4781 3.75128L25.4423 3.95671Z" fill="white"/>
<path fill-rule="evenodd" clip-rule="evenodd" d="M30.6489 1.42896L30.5684 1.61652L30.6489 1.65225C30.8904 1.75943 30.6489 2.19709 30.5147 2.49183L29.8437 3.99237C29.7274 4.25139 29.5127 4.7337 29.2891 4.63545L29.2086 4.59973L29.1281 4.78729L29.2086 4.82302C29.3517 4.88554 29.4322 4.89447 29.5306 4.91234C29.6648 4.93913 29.7006 4.98379 29.799 5.05525C29.8616 5.10884 29.9242 5.14456 29.9958 5.18029C30.1121 5.25174 30.2195 5.30534 30.3358 5.35893C31.0783 5.6894 31.4808 5.18029 31.6687 4.74263C31.8745 4.27818 31.8118 3.69762 31.123 3.38501C31.0157 3.34035 30.8994 3.29569 30.7831 3.25996L31.0246 2.71513C31.2035 2.3132 31.3377 1.95593 31.5614 2.05418L31.6419 2.0899L31.7224 1.90234L31.5882 1.84875C31.5256 1.82195 31.454 1.80409 31.3824 1.78623C31.3019 1.76836 31.2304 1.74157 31.1588 1.70584C31.0872 1.67904 31.0157 1.63439 30.953 1.58973C30.8904 1.554 30.8367 1.50934 30.7741 1.48255L30.6489 1.42896ZM30.7115 3.42967C30.7473 3.4386 30.792 3.45646 30.8278 3.47433C31.2482 3.66189 31.3467 4.07275 31.123 4.58186C30.8994 5.08204 30.5505 5.22495 30.3179 5.11777C30.0584 5.01059 30.0942 4.82302 30.2374 4.50148L30.7115 3.42967ZM32.9927 2.47397L32.9122 2.66154L32.9927 2.69726C33.2343 2.80444 33.0017 3.2421 32.8496 3.56364L32.1786 5.06418C32.0713 5.30534 31.8655 5.77872 31.6419 5.68047L31.5614 5.64474L31.4808 5.83231L31.624 5.89483C31.6866 5.92163 31.7582 5.93056 31.8297 5.93949C31.9103 5.95735 31.9818 5.98415 32.0534 6.01094C32.125 6.04667 32.1965 6.0824 32.2591 6.12706C32.3128 6.17171 32.3665 6.22531 32.4291 6.2521L32.5723 6.31462L32.6528 6.12706L32.5723 6.09133C32.3665 6.00201 32.5454 5.60008 32.6707 5.30534L33.3595 3.76014C33.4937 3.45646 33.6637 2.98308 33.9052 3.09026L33.9947 3.14385L34.0752 2.95628L33.941 2.89376C33.8784 2.86697 33.8068 2.8491 33.7352 2.83124C33.6547 2.81338 33.5832 2.78658 33.5116 2.75085C33.44 2.72406 33.3774 2.6794 33.3058 2.64367C33.2432 2.60795 33.1895 2.56329 33.118 2.53649L32.9927 2.47397Z" fill="white"/>
<path fill-rule="evenodd" clip-rule="evenodd" d="M35.5242 3.89453L35.399 4.06423L35.4706 4.11783C35.6674 4.26073 35.4169 4.57334 35.2201 4.8413L34.1197 6.35076C33.9855 6.5294 33.7171 6.88667 33.5293 6.75269L33.4577 6.6991L33.3325 6.8688L33.4577 6.95812C33.5114 7.00278 33.5829 7.02064 33.6545 7.04744C33.7261 7.08317 33.7977 7.12782 33.8603 7.17248C33.9229 7.21714 33.9855 7.27073 34.0392 7.33326C34.0839 7.38685 34.1287 7.44937 34.1823 7.49403L34.3076 7.58334L34.4328 7.41364L34.3612 7.36005C34.1823 7.22607 34.4328 6.85987 34.567 6.67231L35.6674 5.16284C35.8642 4.89489 36.0878 4.56441 36.2846 4.70732L36.3562 4.76091L36.4814 4.59121L36.3652 4.51082C36.3115 4.46616 36.2489 4.43937 36.1862 4.41257C36.1147 4.37685 36.0431 4.33219 35.9805 4.28753C35.9179 4.24287 35.8552 4.18035 35.8016 4.12676C35.7479 4.07317 35.7031 4.01958 35.6495 3.98385L35.5242 3.89453ZM36.8303 5.10032L36.9109 5.15391C36.9645 5.19857 36.9645 5.27895 36.884 5.35934C36.7051 5.52904 36.4099 5.5737 36.1862 5.62729C35.9268 5.68981 35.6584 5.77913 35.2469 5.89524C35.238 6.44901 35.1753 7.02064 35.1574 7.2618C35.0948 7.84237 35.059 8.14604 35.3364 8.35148C35.4706 8.44972 35.5242 8.44079 35.7389 8.50331L35.8642 8.33361C35.6942 8.31575 35.6405 8.27109 35.6137 8.25323C35.5063 8.17284 35.56 7.91382 35.5958 7.71732C35.6405 7.42257 35.6674 7.10996 35.7031 6.80628C35.7389 6.53833 35.7837 6.26144 35.5958 5.94883C35.6853 5.93097 35.73 5.92204 35.8105 5.90418C36.0163 5.85058 35.8373 5.88631 36.3741 5.77913C37.3582 5.5737 37.4118 5.52011 37.6265 5.67195L37.6713 5.70768L37.7965 5.53797L37.716 5.48438C37.6802 5.45759 37.6355 5.43972 37.5997 5.42186C37.5192 5.38613 37.4297 5.34147 37.3582 5.28788C37.2776 5.22536 37.2061 5.15391 37.1345 5.07352C37.0987 5.0378 37.0629 5.011 37.0272 4.9842L36.9466 4.93061L36.8303 5.10032Z" fill="white"/>
<path fill-rule="evenodd" clip-rule="evenodd" d="M40.1226 7.9043L39.9616 8.03827L40.0153 8.10973C40.1674 8.29729 39.8453 8.53845 39.5859 8.74388L38.1366 9.91394C37.9667 10.0568 37.6088 10.3248 37.4657 10.1551L37.412 10.0836L37.251 10.2176L37.3494 10.3427C37.3941 10.3963 37.4567 10.432 37.5104 10.4766C37.573 10.5302 37.6267 10.5838 37.6804 10.6463C37.7251 10.7089 37.7788 10.7714 37.8146 10.8428C37.8414 10.9054 37.8683 10.9768 37.913 11.0304L38.0114 11.1555L38.1724 11.0215L38.1187 10.95C37.9756 10.7714 38.3155 10.4856 38.4945 10.3427L39.9437 9.17261C40.2032 8.96718 40.5073 8.69922 40.6594 8.88679L40.7131 8.95824L40.8741 8.82427L40.7846 8.71709C40.7399 8.6635 40.6862 8.61884 40.6326 8.56525C40.5789 8.51166 40.5163 8.45806 40.4626 8.39554C40.4089 8.33302 40.3731 8.26157 40.3284 8.19904C40.2926 8.13652 40.2568 8.074 40.2121 8.02041L40.1226 7.9043ZM41.0709 9.40483L41.1335 9.47628C41.1783 9.52988 41.1514 9.61919 41.053 9.66385C40.8383 9.77996 40.5342 9.75317 40.3105 9.74424C40.0421 9.73531 39.7559 9.75317 39.3354 9.7621C39.1833 10.2891 38.9776 10.8339 38.8881 11.0572C38.6823 11.602 38.5571 11.8879 38.7807 12.1558C38.8881 12.2898 38.9418 12.2898 39.1296 12.4059L39.2907 12.2719C39.1386 12.2094 39.0938 12.1558 39.067 12.129C38.9865 12.0308 39.1028 11.7896 39.1833 11.611C39.2996 11.3341 39.4159 11.0393 39.5233 10.7625C39.6217 10.5034 39.738 10.2533 39.6485 9.90501C39.738 9.91394 39.7827 9.91394 39.8632 9.91394C40.0779 9.91394 39.89 9.90501 40.4357 9.9318C41.4377 9.98539 41.5093 9.94967 41.6703 10.1551L41.7061 10.1998L41.8671 10.0658L41.8045 9.99433C41.7776 9.9586 41.7419 9.9318 41.7061 9.90501C41.6345 9.84249 41.5629 9.77996 41.5093 9.70851C41.4466 9.62812 41.393 9.53881 41.3482 9.44056C41.3214 9.3959 41.2946 9.36017 41.2677 9.32444L41.214 9.25299L41.0709 9.40483Z" fill="white"/>
<path fill-rule="evenodd" clip-rule="evenodd" d="M42.8778 11.6917L42.6899 11.781L42.7257 11.8614C42.833 12.1025 42.3678 12.2722 42.0726 12.4062L40.5876 13.0939C40.3281 13.219 39.854 13.4423 39.7467 13.21L39.7109 13.1297L39.523 13.219L39.5588 13.2994C39.6304 13.4423 39.684 13.4959 39.7467 13.5762C39.8361 13.6834 39.8272 13.737 39.854 13.8531C39.8719 13.9335 39.8898 14.005 39.9166 14.0764C39.9524 14.2015 40.0061 14.3176 40.0598 14.4337C40.3997 15.1661 41.0438 15.0411 41.4732 14.8446C41.9384 14.6302 42.2694 14.1479 41.9474 13.4601C41.8937 13.353 41.8311 13.2458 41.7685 13.1386L42.3142 12.8885C42.7167 12.7009 43.0477 12.5223 43.1551 12.7456L43.1909 12.826L43.3787 12.7367L43.3161 12.6027C43.2893 12.5402 43.2445 12.4776 43.1998 12.4241C43.1551 12.3615 43.1103 12.2901 43.0835 12.2186C43.0477 12.1472 43.0298 12.0668 43.003 11.9953C42.9851 11.9239 42.9672 11.8524 42.9404 11.7899L42.8778 11.6917ZM41.6074 13.2458C41.6253 13.2815 41.6432 13.3172 41.6611 13.353C41.8579 13.7638 41.6611 14.1479 41.1601 14.3801C40.6681 14.6123 40.3103 14.4962 40.194 14.2551C40.0777 14.005 40.2297 13.8889 40.5429 13.737L41.6074 13.2458ZM43.9602 14.0139L43.7724 14.1032L43.8081 14.1836C43.9155 14.4158 43.4592 14.5945 43.1282 14.7463L41.6432 15.443C41.4106 15.5502 40.9365 15.7824 40.8291 15.5591L40.7933 15.4787L40.6055 15.568L40.6681 15.7109C40.6949 15.7735 40.7486 15.8271 40.7933 15.8806C40.8381 15.9432 40.8828 16.0146 40.9096 16.0861C40.9454 16.1575 40.9723 16.229 40.9902 16.3094C41.008 16.3808 41.008 16.4523 41.0349 16.5148L41.0975 16.6577L41.2854 16.5684L41.2496 16.488C41.1512 16.2826 41.5537 16.095 41.84 15.961L43.3698 15.2465C43.6739 15.1036 44.1034 14.8624 44.2197 15.1036L44.2554 15.184L44.4433 15.0946L44.3807 14.9607C44.3538 14.8981 44.3091 14.8356 44.2644 14.782C44.2197 14.7195 44.1749 14.6481 44.1481 14.5766C44.1123 14.5052 44.0944 14.4248 44.0676 14.3533C44.0497 14.2819 44.0318 14.2104 44.0049 14.1479L43.9602 14.0139Z" fill="white"/>
<path fill-rule="evenodd" clip-rule="evenodd" d="M42.3146 17.2472L42.1983 17.274C41.8404 17.3633 41.4468 17.3901 41.42 17.9885C41.411 18.1315 41.42 18.2654 41.4558 18.3994C41.6526 19.1854 42.3861 19.3283 42.8782 19.2122C43.5312 19.0514 43.6475 18.4619 43.576 18.1672L43.5581 18.0957L43.6117 18.0779C43.737 18.3547 44.0412 18.7477 44.6047 18.6138C44.9715 18.5244 45.3741 18.2744 45.222 17.667C45.0878 17.14 44.9536 17.0686 44.9536 16.7649L44.8105 16.8006C44.6763 16.8363 44.2648 16.9167 44.0948 16.9525L44.1306 17.1043C44.5511 17.0864 44.8731 17.1132 44.9626 17.4616C45.0342 17.7474 44.8284 17.9796 44.4437 18.0689C44.0143 18.1761 43.6744 17.9617 43.6028 17.6759C43.5849 17.6134 43.576 17.542 43.567 17.4794L43.2807 17.5509C43.3076 17.6045 43.3344 17.6581 43.3523 17.7474C43.4865 18.2833 43.075 18.5512 42.6366 18.6584C42.073 18.8013 41.7152 18.5959 41.6436 18.2744C41.581 18.0243 41.6615 17.6581 42.3414 17.3723L42.3146 17.2472Z" fill="white"/>
<path fill-rule="evenodd" clip-rule="evenodd" d="M41.9475 20.1947L41.9565 20.3287C41.9654 20.4805 42.0459 20.6234 42.0459 20.7306C42.0549 20.8646 42.0012 21.0254 42.0101 21.1058L42.0191 21.204L42.2248 21.1861L42.2159 21.0879C42.198 20.8378 42.6721 20.8557 42.8421 20.8467C43.2715 20.8199 44.3898 20.7932 44.6313 20.7753L44.7208 20.7664V20.811C44.6045 20.8378 44.3271 20.9182 43.4236 21.3559C43.0479 21.5345 42.8511 21.6506 42.5469 21.7846C42.368 21.865 42.368 21.865 42.1622 21.9632L42.1712 22.124C42.4753 22.2133 42.5111 22.2222 42.6632 22.2758C43.021 22.383 43.0658 22.4009 43.5488 22.5527C43.9782 22.6777 44.1661 22.7403 44.3629 22.7939C44.8192 22.9189 44.5955 22.8475 44.8639 22.9278V22.9546L44.5776 22.9636L42.9047 23.1601C42.4216 23.2137 42.3501 23.1154 42.3411 22.9814V22.9189L42.1354 22.9368L42.1443 23.044C42.1533 23.1154 42.1712 23.1779 42.1891 23.2494C42.2069 23.3387 42.2338 23.4191 42.2427 23.5084C42.2517 23.5977 42.2517 23.687 42.2338 23.7853C42.2248 23.8478 42.2069 23.9193 42.2069 23.9907L42.2248 24.1158L42.4306 24.0979L42.4216 24.0354C42.3948 23.7049 43.1284 23.6781 43.6472 23.6156L45.0697 23.4459C45.2396 23.428 45.4186 23.4012 45.5975 23.3834C45.6333 23.3834 45.669 23.3744 45.7048 23.3744C45.7943 23.3655 45.8659 23.3566 46 23.3387C45.9464 23.2137 45.9106 23.0886 45.8837 22.9457C45.8032 22.9278 45.4186 22.8475 44.4613 22.5616C43.7904 22.3562 43.4415 22.1954 42.9137 22.115V22.0793C43.1015 22.0257 43.2447 21.9543 43.4236 21.8828L45.8301 20.8289C45.7764 20.7485 45.7406 20.6502 45.7138 20.552C45.5706 20.5609 45.016 20.5877 44.5687 20.5877H43.0031C42.3322 20.5877 42.1801 20.3912 42.1712 20.2483L42.1622 20.1858L41.9475 20.1947Z" fill="white"/>
<path fill-rule="evenodd" clip-rule="evenodd" d="M42.055 24.7856L42.0371 24.9286C42.0282 24.9732 42.0461 25.0268 42.0461 25.0715C42.055 25.1518 42.0371 25.2322 42.0282 25.3037C41.9655 25.6788 41.9655 25.3751 41.9119 25.6967L41.9029 25.7771L42.1087 25.8128L42.1266 25.7145C42.1355 25.6252 42.2071 25.4377 42.556 25.5984L43.1822 25.8753C43.1375 26.1165 43.1106 26.1611 43.1017 26.2683C43.0748 26.447 43.048 26.6435 43.048 26.7328L42.2786 26.8132C42.0908 26.831 41.9655 26.7328 41.9834 26.6077L42.0013 26.5095L41.7956 26.4737L41.7687 26.6613C41.7598 26.7417 41.7687 26.831 41.7687 26.9114C41.7687 26.9829 41.7598 27.0543 41.7508 27.1258C41.7329 27.224 41.7151 27.3133 41.6793 27.4116C41.6524 27.483 41.6256 27.5545 41.6166 27.6259L41.5988 27.7331L41.8045 27.7689L41.8135 27.7242C41.8314 27.6081 41.8045 27.4741 42.2518 27.4026C42.6723 27.3312 42.2697 27.3669 44.2378 27.1347C45.1145 27.0364 45.3203 27.0097 45.6066 27.0007C45.5708 26.8935 45.5439 26.7774 45.535 26.6524C45.2308 26.5541 44.9267 26.4202 43.6384 25.8307C43.3701 25.7056 42.9764 25.518 42.6007 25.3037C42.4307 25.2054 42.2339 25.0804 42.2608 24.9107L42.2786 24.8214L42.055 24.7856ZM44.7299 26.572C44.4167 26.5631 44.3362 26.6167 43.2806 26.7149C43.2717 26.6167 43.2806 26.5273 43.2985 26.3755C43.3253 26.1969 43.3522 26.0897 43.3969 25.9825C44.4794 26.4559 44.542 26.4916 44.7299 26.5363V26.572Z" fill="white"/>
<path fill-rule="evenodd" clip-rule="evenodd" d="M44.2828 30.5288L42.0821 29.7696C41.7422 29.6535 41.1965 29.457 41.277 29.2247L41.3038 29.1354L41.107 29.064L41.0533 29.2247C41.0265 29.2962 41.0354 29.3676 41.0265 29.4391C41.0175 29.5195 40.9907 29.5999 40.9728 29.6713C40.946 29.7428 40.9191 29.8232 40.8744 29.8857C40.8386 29.9482 40.7849 30.0018 40.7671 30.0733L40.7134 30.2251L40.9102 30.2965L40.937 30.2072C41.0175 29.9571 41.5722 30.1715 41.9121 30.2876L44.1129 31.0468L44.0055 31.3684C43.9518 31.5291 43.8266 31.8417 43.433 31.7078C43.4151 31.6988 43.3167 31.672 43.2093 31.6095L43.1556 31.7703C43.5582 31.9757 43.6208 32.0293 44.0323 32.199C44.1307 31.8417 44.2739 31.2701 44.417 30.8592C44.4707 30.6985 44.6138 30.3055 44.6765 30.1715C44.7391 30.0197 44.757 29.9929 44.918 29.6535C44.6317 29.5373 44.5244 29.4748 44.0413 29.2426L43.9876 29.3944C44.4707 29.6892 44.5154 29.9393 44.426 30.1983L44.2828 30.5288Z" fill="white"/>
<path fill-rule="evenodd" clip-rule="evenodd" d="M43.1733 33.6903L42.9944 33.5831L42.9496 33.6635C42.8065 33.8868 42.4039 33.5831 42.1356 33.4134L40.74 32.5471C40.4984 32.3952 40.0422 32.1183 40.1764 31.904L40.2211 31.8325L40.0422 31.7253L39.9975 31.8057C39.908 31.9397 39.8991 32.0201 39.8633 32.1094C39.8185 32.2434 39.7738 32.2702 39.6844 32.3506C39.6217 32.4042 39.577 32.4667 39.5323 32.5292C39.4518 32.6274 39.3802 32.7346 39.3086 32.8418C38.8792 33.5296 39.3265 33.994 39.738 34.2441C40.1674 34.512 40.7579 34.5299 41.1604 33.8958C41.2231 33.7886 41.2767 33.6814 41.3304 33.5742L41.8403 33.8868C42.2161 34.1191 42.5471 34.2977 42.4129 34.512L42.3681 34.5924L42.5471 34.6996L42.6276 34.5746C42.6634 34.512 42.6902 34.4406 42.717 34.3781C42.7528 34.3066 42.7797 34.2352 42.8244 34.1637C42.8691 34.1012 42.9228 34.0297 42.9675 33.9761C43.0123 33.9226 43.0659 33.869 43.1017 33.8064L43.1733 33.6903ZM41.1783 33.467C41.1604 33.5028 41.1425 33.5385 41.1157 33.5742C40.8742 33.9583 40.4537 34.0029 39.9796 33.7082C39.5144 33.4224 39.416 33.0562 39.5591 32.8329C39.7022 32.6007 39.8901 32.6542 40.1764 32.8418L41.1783 33.467ZM41.8135 35.8518L41.6346 35.7446L41.5898 35.825C41.4557 36.0483 41.0531 35.7536 40.7489 35.566L39.3623 34.6996C39.1386 34.5656 38.6913 34.2888 38.8255 34.0833L38.8703 34.0119L38.6913 33.9047L38.6108 34.0387C38.575 34.1012 38.5572 34.1726 38.5393 34.2352C38.5124 34.3066 38.4766 34.3781 38.4319 34.4495C38.3872 34.512 38.3425 34.5746 38.2888 34.6371C38.2351 34.6907 38.1814 34.7353 38.1456 34.7889L38.0651 34.9229L38.244 35.0301L38.2888 34.9586C38.4051 34.7711 38.7808 34.9944 39.0492 35.1641L40.4805 36.0572C40.7579 36.2359 41.2052 36.4681 41.062 36.6914L41.0173 36.7718L41.1962 36.879L41.2767 36.7539C41.3125 36.6914 41.3394 36.6199 41.3662 36.5574C41.402 36.486 41.4288 36.4145 41.4735 36.3431C41.5183 36.2805 41.572 36.2091 41.6167 36.1555C41.6614 36.1019 41.7151 36.0483 41.7509 35.9858L41.8135 35.8518Z" fill="white"/>
</svg>
